####
#
# OBJ File Generated by Meshlab
#
####
# Object fish.obj
#
# Vertices: 212
# Faces: 420
#
####
vn 0.981290 0.175781 -0.078551
v 0.637210 0.027893 0.385041
vn 0.977092 0.177967 0.116699
v 0.630244 0.025130 2.578381
vn 0.929946 -0.361439 -0.067541
v 0.706934 -0.859753 0.441920
vn 0.877799 0.126318 -0.462074
v 0.245722 -0.089743 -2.513955
vn 0.888330 0.449625 -0.093310
v 0.386398 0.819295 0.437010
vn 0.888544 0.439410 0.131942
v 0.396645 0.719626 2.523860
vn 0.938484 -0.320809 0.127783
v 0.656858 -0.785386 2.610010
vn 0.863881 -0.260438 -0.431140
v 0.265410 -0.431946 -2.531150
vn 0.867463 0.368873 -0.333827
v 0.172274 0.235627 -2.484186
vn 0.932204 0.350917 -0.088611
v -0.053337 0.531073 -2.458965
vn 0.957519 0.285841 -0.038112
v -0.055472 1.461152 0.496648
vn 0.941615 0.332492 0.053012
v -0.051699 1.356632 2.474756
vn 0.858109 0.075677 0.507861
v 0.185793 0.051192 4.843890
vn 0.815832 -0.017374 0.578028
v 0.174016 -0.049116 4.861904
vn 0.835058 -0.089304 0.542865
v 0.177888 -0.157236 4.849121
vn 0.578985 -0.810231 0.091114
v 0.108008 -1.415921 2.492424
vn 0.908305 -0.417734 -0.021925
v -0.043365 -1.549272 0.450552
vn 0.904265 -0.415099 -0.099985
v -0.047325 -0.731821 -2.551451
vn 0.996064 0.023929 -0.085345
v -0.056079 -0.697001 -4.527766
vn 0.998062 -0.000347 -0.062229
v -0.056079 -0.105278 -4.389502
vn 0.996241 -0.022995 -0.083519
v -0.056079 0.486445 -4.527766
vn 0.785185 0.357999 0.505294
v 0.169879 0.179935 4.839464
vn 0.734761 -0.361124 0.574209
v 0.153369 -0.274611 4.851509
vn 0.977518 -0.055477 -0.203423
v -0.056079 1.078168 -4.818175
vn 0.968746 0.076728 -0.235891
v -0.056079 -1.288724 -4.818175
vn 0.990643 0.135840 0.013190
v 0.702925 0.014120 1.617417
vn 0.889342 0.456537 0.025390
v 0.458215 0.862259 1.585920
vn 0.910079 -0.414311 0.010114
v 0.682739 -0.887081 1.632500
vn 0.956341 0.292086 0.009847
v -0.055754 1.530250 1.582533
vn 0.868609 -0.493095 0.048738
v -0.048785 -1.518219 1.637078
vn 0.960051 0.245574 -0.134148
v 0.443846 0.033709 -1.509664
vn 0.944392 -0.269796 -0.187970
v 0.457538 -0.536087 -1.512073
vn 0.878920 0.446341 -0.168165
v 0.183243 0.558052 -1.421361
vn 0.968911 0.231139 -0.088243
v -0.055077 1.041507 -1.376986
vn 0.959257 -0.268170 -0.088945
v -0.040545 -1.348053 -1.421288
vn 0.974769 0.164634 0.150733
v 0.481740 0.000053 3.623899
vn 0.917634 0.371892 0.140157
v 0.301909 0.439209 3.574004
vn 0.956613 -0.206600 0.205445
v 0.448746 -0.516257 3.640587
vn 0.846210 0.505566 0.168324
v 0.121166 0.879929 3.569696
vn 0.661246 -0.697001 0.277387
v 0.196013 -1.119060 3.635880
vn 0.953307 0.294171 -0.068337
v -0.055548 1.250899 -0.439844
vn 0.976266 0.183748 -0.114638
v 0.534328 0.006281 -0.601439
vn 0.944926 -0.293197 -0.145433
v 0.552675 -0.677139 -0.575528
vn 0.892205 0.428489 -0.142714
v 0.318129 0.682234 -0.515758
vn 0.930192 -0.362143 -0.059967
v -0.037713 -1.453752 -0.453209
vn 0.998123 -0.049074 -0.036637
v -0.056079 -2.267688 0.626610
vn 0.997338 -0.049362 0.053664
v -0.056033 -1.925169 1.370098
vn 0.994071 -0.103884 0.032096
v -0.052403 -1.795025 0.014863
vn 0.999332 -0.006561 -0.035950
v -0.055310 -1.243719 -2.996632
vn 0.998618 -0.051175 -0.012008
v -0.053073 -1.667008 -2.300243
vn 0.995738 -0.092106 -0.004717
v -0.046446 -1.778182 -0.962715
vn 0.999438 0.027115 -0.019717
v -0.056079 1.511209 -3.033050
vn 0.999435 0.033337 -0.004213
v -0.056079 2.054451 -0.032900
vn 0.999100 0.038025 0.018805
v -0.056079 1.925020 1.911451
vn 0.999364 0.035549 0.002927
v -0.056079 2.123271 1.052596
vn 0.999599 0.027330 -0.007359
v -0.056079 1.501193 -1.842815
vn 0.999500 0.030449 -0.008515
v -0.056079 1.843554 -0.968612
vn 0.922181 0.020410 -0.386219
v -0.047666 -0.074216 -2.804092
vn 0.999986 0.000417 -0.005241
v -0.054938 -0.105166 -3.540679
vn 0.917368 0.003925 -0.398021
v -0.047190 -0.377083 -2.812579
vn 0.999985 -0.000927 -0.005489
v -0.055412 -0.553038 -3.540652
vn 0.941038 0.053047 -0.334116
v -0.050667 0.220212 -2.788079
vn 0.999991 0.001716 -0.003832
v -0.055878 0.342190 -3.539401
vn 0.997780 0.064199 0.017721
v -0.056079 0.789439 -3.539116
vn 0.982778 0.164556 -0.084070
v -0.054796 0.514941 -2.768621
vn 0.978702 -0.165631 -0.121276
v -0.050706 -0.723831 -2.800561
vn 0.997884 -0.063620 0.013434
v -0.055983 -1.000863 -3.538546
vn -0.980639 0.183230 -0.069091
v -0.712984 0.021939 0.406196
vn -0.976362 0.196031 0.091042
v -0.701948 0.026627 2.545476
vn -0.935304 -0.348973 -0.058515
v -0.771903 -0.847612 0.455152
vn -0.892719 0.118516 -0.434750
v -0.350543 -0.092066 -2.500460
vn -0.903143 0.422601 -0.075776
v -0.449122 0.797287 0.456436
vn -0.900777 0.422356 0.101078
v -0.448091 0.708516 2.494225
vn -0.949580 -0.294370 0.107911
v -0.738851 -0.768891 2.578321
vn -0.879505 -0.235869 -0.413325
v -0.372032 -0.429254 -2.516105
vn -0.881664 0.350313 -0.316147
v -0.283997 0.230148 -2.476547
vn -0.936006 0.344887 -0.070320
v -0.064815 0.519658 -2.463973
vn -0.967655 0.250039 -0.033544
v -0.062689 1.460950 0.496798
vn -0.958535 0.278662 0.059641
v -0.065677 1.351923 2.464377
vn -0.880932 0.043077 0.471278
v -0.293776 0.046687 4.826990
vn -0.847190 -0.024232 0.530738
v -0.283475 -0.050879 4.841642
vn -0.861344 -0.081452 0.501450
v -0.285938 -0.153632 4.829079
vn -0.635778 -0.766667 0.089486
v -0.232315 -1.411279 2.483379
vn -0.923714 -0.382833 -0.013866
v -0.073118 -1.551480 0.519560
vn -0.922844 -0.367364 -0.115772
v -0.070294 -0.762669 -2.525684
vn -0.999999 -0.000412 0.001397
v -0.062167 -0.697001 -4.527766
vn -1.000000 -0.000006 0.000602
v -0.062167 -0.105278 -4.389503
vn -0.999999 0.000574 0.001626
v -0.062167 0.486445 -4.527766
vn -0.816643 0.334363 0.470421
v -0.284450 0.148799 4.829336
vn -0.773805 -0.345524 0.530885
v -0.263804 -0.286305 4.829614
vn -0.999982 0.001986 0.005672
v -0.062167 1.078168 -4.818175
vn -0.999987 -0.001514 0.004897
v -0.062167 -1.288724 -4.818175
vn -0.987870 0.154656 0.013912
v -0.761665 0.013049 1.610346
vn -0.904298 0.426064 0.026741
v -0.497327 0.837082 1.585004
vn -0.917812 -0.397012 0.001427
v -0.749378 -0.870502 1.626574
vn -0.967976 0.250824 0.010529
v -0.062425 1.529913 1.582579
vn -0.915326 -0.399383 -0.051692
v -0.068965 -1.495516 1.648666
vn -0.967306 0.223693 -0.119499
v -0.520754 0.026061 -1.482096
vn -0.952984 -0.248003 -0.174116
v -0.540659 -0.538364 -1.489859
vn -0.895862 0.417765 -0.151341
v -0.294022 0.551894 -1.412405
vn -0.972965 0.216975 -0.079129
v -0.063097 1.040981 -1.376443
vn -0.963294 -0.255171 -0.083379
v -0.075476 -1.348786 -1.412351
vn -0.977478 0.160794 0.136680
v -0.578554 -0.001100 3.604079
vn -0.922938 0.365591 0.120537
v -0.416406 0.438031 3.558766
vn -0.963087 -0.190941 0.189751
v -0.560722 -0.508208 3.624372
vn -0.857181 0.491400 0.154166
v -0.236275 0.867982 3.556402
vn -0.698867 -0.666693 0.259048
v -0.314789 -1.110981 3.612234
vn -0.962997 0.263032 -0.058750
v -0.062646 1.250598 -0.439511
vn -0.976837 0.183495 -0.110085
v -0.605416 0.002137 -0.573115
vn -0.950841 -0.277705 -0.137046
v -0.636632 -0.682388 -0.558766
vn -0.906793 0.403524 -0.122043
v -0.398454 0.670679 -0.495448
vn -0.935643 -0.348610 -0.055172
v -0.078074 -1.444666 -0.451725
vn -0.999995 -0.002594 -0.001774
v -0.062167 -2.267688 0.626610
vn -0.999954 -0.007874 -0.005569
v -0.062217 -1.925218 1.370021
vn -0.998152 -0.059655 0.011570
v -0.065719 -1.788794 -0.004039
vn -0.999966 0.006316 -0.005381
v -0.062818 -1.239315 -2.997689
vn -0.999786 -0.019165 -0.007744
v -0.064884 -1.660424 -2.303263
vn -0.999724 -0.023466 -0.001262
v -0.070536 -1.758143 -0.965770
vn -0.999999 0.001170 0.000965
v -0.062167 1.511209 -3.033050
vn -1.000000 -0.000361 0.000049
v -0.062167 2.054451 -0.032900
vn -0.999995 0.003064 0.000711
v -0.062167 1.925020 1.911451
vn -1.000000 -0.000465 -0.000237
v -0.062167 2.123271 1.052596
vn -1.000000 0.000448 0.000148
v -0.062167 1.501193 -1.842815
vn -1.000000 -0.000355 0.000080
v -0.062167 1.843554 -0.968612
vn -0.929011 0.017295 -0.369647
v -0.069949 -0.074632 -2.798994
vn -0.999988 0.000402 -0.004801
v -0.063264 -0.105174 -3.540549
vn -0.925945 -0.004813 -0.377627
v -0.070446 -0.375577 -2.806435
vn -0.999987 -0.000881 -0.005051
v -0.062809 -0.552999 -3.540514
vn -0.945506 0.044724 -0.322519
v -0.067194 0.219029 -2.785591
vn -0.999992 0.001618 -0.003524
v -0.062360 0.342186 -3.539387
vn -0.999999 -0.000340 -0.001126
v -0.062167 0.789439 -3.539116
vn -0.990544 0.105127 -0.088149
v -0.063372 0.514327 -2.772136
vn -0.975847 -0.167728 -0.139964
v -0.067503 -0.719607 -2.776257
vn -0.999993 -0.000871 -0.003579
v -0.062264 -1.000987 -3.538653
vn -0.105099 0.157111 -0.981973
v -0.062905 0.591908 -2.564858
vn -0.080403 0.993425 0.081497
v -0.062400 1.462013 2.542262
vn -0.042601 0.063890 0.997047
v -0.064931 0.041481 5.061940
vn -0.046912 -0.030159 0.998444
v -0.065204 -0.053551 5.061719
vn -0.043038 -0.108522 0.993162
v -0.065359 -0.148572 5.056064
vn -0.018627 -0.986505 0.162667
v -0.068104 -1.491742 2.553922
vn -0.074925 -0.907581 -0.413139
v -0.061093 -1.677462 0.412323
vn -0.097956 0.073464 -0.992476
v -0.058886 -0.824183 -2.687964
vn -0.124869 0.387675 -0.913300
v -0.062302 -0.730150 -4.570870
vn -0.086161 -0.005759 -0.996265
v -0.062302 -0.105562 -4.432606
vn -0.128551 -0.403116 -0.906075
v -0.062302 0.519026 -4.570870
vn -0.042604 0.453699 0.890136
v -0.063918 0.186000 5.042500
vn -0.050283 -0.439757 0.896708
v -0.068120 -0.290228 5.032509
vn -0.028309 0.700432 -0.713158
v -0.062302 1.143613 -4.861279
vn -0.028052 -0.697310 -0.716220
v -0.062302 -1.354738 -4.861279
vn -0.119154 -0.992874 -0.001682
v -0.071154 -1.579084 1.699997
vn -0.052326 0.936526 0.346670
v -0.063238 1.079870 3.685630
vn -0.033301 -0.919131 0.392542
v -0.067236 -1.198816 3.765310
vn -0.025117 -0.942307 -0.333806
v -0.062300 -2.359720 0.609693
vn -0.037161 -0.811486 0.583189
v -0.062300 -2.002168 1.384396
vn -0.017262 -0.988883 0.147688
v -0.060168 -1.865246 -0.039286
vn -0.016971 -0.165455 -0.986071
v -0.062907 -1.289451 -3.163004
vn -0.014764 -0.910718 -0.412765
v -0.061405 -1.745965 -2.450265
vn -0.064585 -0.994485 -0.082635
v -0.066742 -1.900245 -1.052662
vn -0.011120 0.456013 -0.889904
v -0.062300 1.581300 -3.206974
vn -0.030460 0.987251 -0.156229
v -0.062302 2.147848 -0.078111
vn -0.029033 0.894469 0.446186
v -0.062302 2.012864 1.949657
vn -0.030330 0.996633 0.076182
v -0.062302 2.219620 1.053955
vn -0.047043 0.997244 -0.057379
v -0.062302 1.570854 -1.965676
vn -0.028360 0.948941 -0.314176
v -0.062302 1.927903 -1.053967
vn -0.062777 0.961454 0.267704
v -0.062300 0.838848 -3.534988
vn -0.076390 0.996775 -0.024591
v -0.062392 0.560308 -2.718858
vn -0.010186 -0.996824 -0.078979
v -0.059615 -0.822842 -2.719636
vn -0.061556 -0.975321 0.212037
v -0.062295 -1.051254 -3.534064
vn 0.964960 0.129434 0.228251
v 0.372499 -0.019943 4.242424
vn 0.929111 0.322645 0.180699
v 0.278733 0.281054 4.204535
vn 0.945095 -0.196525 0.261099
v 0.356251 -0.368346 4.244604
vn 0.817870 0.512946 0.260720
v 0.169007 0.598788 4.199661
vn 0.711222 -0.579054 0.398572
v 0.201556 -0.770173 4.243309
vn -0.966939 0.126400 0.221477
v -0.474356 -0.021570 4.220061
vn -0.932523 0.311756 0.182233
v -0.389632 0.277883 4.186603
vn -0.950053 -0.177085 0.256983
v -0.465780 -0.361844 4.224373
vn -0.828297 0.500572 0.251698
v -0.283923 0.574750 4.186593
vn -0.741435 -0.552758 0.380437
v -0.316211 -0.772189 4.217900
vn -0.039259 -0.801298 0.596975
v -0.068905 -0.823387 4.416515
vn -0.067804 0.848104 0.525474
v -0.064330 0.727226 4.377632
vn 0.464368 0.878577 -0.111647
v 0.681823 -0.174494 2.015158
vn 0.859015 0.400483 0.318915
v 0.682229 -0.187965 2.181139
vn 0.978355 -0.194566 0.070468
v 0.643300 -0.652937 2.087316
vn 0.798471 -0.581176 0.157094
v 0.678606 -0.636946 2.151419
vn -0.817743 0.546549 0.180501
v -0.738473 -0.156972 2.025582
vn -0.944701 0.262691 0.196300
v -0.747732 -0.214758 2.160238
vn -0.813779 -0.578362 0.057104
v -0.765719 -0.673262 2.000917
vn -0.954537 -0.208477 0.213063
v -0.763302 -0.638924 2.089587
vn 0.997435 0.049723 0.051494
v 0.678698 -0.160230 1.970646
vn 0.977687 0.113938 0.176481
v 0.654471 -0.167349 2.215504
vn 0.997372 0.010535 0.071675
v 0.674112 -0.689511 1.958336
vn 0.996965 -0.033986 0.070038
v 0.665486 -0.647628 2.225219
vn -0.998211 0.017840 0.057071
v -0.741759 -0.119110 1.922056
vn -0.993187 0.064298 0.097186
v -0.721854 -0.159501 2.229180
vn -0.996312 -0.085452 0.007797
v -0.745869 -0.738706 1.943823
vn -0.995974 -0.023248 0.086578
v -0.742360 -0.656675 2.167926
vn 0.923017 0.291917 -0.250648
v -0.947884 0.108908 1.069726
vn -0.244551 0.899737 -0.361480
v -0.984275 0.176911 1.043908
vn 0.903239 -0.294344 -0.312284
v -0.950049 -0.784809 1.009566
vn -0.317450 -0.856264 -0.407476
v -1.004840 -0.874144 0.980422
vn -0.711857 0.600276 -0.364594
v 0.960385 0.039639 1.074327
vn 0.517878 0.807549 -0.282253
v 1.012384 0.067754 1.065536
vn -0.779340 -0.429715 -0.456043
v 0.955013 -0.845337 0.965003
vn 0.408116 -0.832066 -0.375642
v 1.025137 -0.914933 0.952044
vn -0.053777 -0.107404 -0.992760
v 0.670190 -0.401869 2.070609
vn 0.751165 0.011637 0.660012
v 0.691818 -0.416439 2.209989
vn -0.733079 0.132108 -0.667190
v 0.957699 -0.399897 0.805935
vn 0.491753 0.016151 -0.870585
v 1.018761 -0.420274 0.768748
vn 0.313929 -0.048115 0.948227
v -0.739941 -0.392984 2.037081
vn -0.832538 -0.085068 0.547397
v -0.780649 -0.374199 2.143767
vn 0.931973 0.022097 -0.361853
v -0.961819 -0.389917 0.806692
vn -0.239953 -0.117408 -0.963659
v -0.994557 -0.410301 0.739268
# 212 vertices, 0 vertices normals

f 26//26 27//27 6//6
f 26//26 6//6 2//2
f 26//26 2//2 190//190
f 26//26 190//190 189//189
f 169//169 170//170 13//13
f 169//169 13//13 14//14
f 27//27 29//29 12//12
f 27//27 12//12 6//6
f 170//170 172//172 22//22
f 170//170 22//22 13//13
f 190//190 2//2 7//7
f 190//190 7//7 192//192
f 28//28 191//191 192//192
f 28//28 192//192 7//7
f 28//28 7//7 16//16
f 28//28 16//16 30//30
f 169//169 14//14 15//15
f 169//169 15//15 171//171
f 171//171 15//15 23//23
f 171//171 23//23 173//173
f 31//31 32//32 8//8
f 31//31 8//8 4//4
f 59//59 61//61 19//19
f 59//59 19//19 20//20
f 32//32 35//35 18//18
f 32//32 18//18 8//8
f 61//61 67//67 25//25
f 61//61 25//25 19//19
f 31//31 4//4 9//9
f 31//31 9//9 33//33
f 33//33 9//9 10//10
f 33//33 10//10 34//34
f 59//59 20//20 21//21
f 59//59 21//21 63//63
f 63//63 21//21 24//24
f 63//63 24//24 64//64
f 3//3 28//28 30//30
f 3//3 30//30 17//17
f 1//1 26//26 28//28
f 1//1 28//28 3//3
f 5//5 11//11 29//29
f 5//5 29//29 27//27
f 1//1 5//5 27//27
f 1//1 27//27 26//26
f 44//44 33//33 34//34
f 44//44 34//34 41//41
f 42//42 31//31 33//33
f 42//42 33//33 44//44
f 43//43 45//45 35//35
f 43//43 35//35 32//32
f 42//42 43//43 32//32
f 42//42 32//32 31//31
f 7//7 38//38 40//40
f 7//7 40//40 16//16
f 2//2 36//36 38//38
f 2//2 38//38 7//7
f 6//6 12//12 39//39
f 6//6 39//39 37//37
f 2//2 6//6 37//37
f 2//2 37//37 36//36
f 1//1 3//3 43//43
f 1//1 43//43 42//42
f 3//3 17//17 45//45
f 3//3 45//45 43//43
f 1//1 42//42 44//44
f 1//1 44//44 5//5
f 5//5 44//44 41//41
f 5//5 41//41 11//11
f 17//17 30//30 47//47
f 17//17 47//47 46//46
f 45//45 17//17 48//48
f 45//45 48//48 51//51
f 35//35 45//45 51//51
f 35//35 51//51 50//50
f 18//18 35//35 50//50
f 18//18 50//50 49//49
f 29//29 11//11 53//53
f 29//29 53//53 55//55
f 34//34 10//10 52//52
f 34//34 52//52 56//56
f 12//12 29//29 55//55
f 12//12 55//55 54//54
f 11//11 41//41 57//57
f 11//11 57//57 53//53
f 41//41 34//34 56//56
f 41//41 56//56 57//57
f 9//9 62//62 65//65
f 9//9 65//65 10//10
f 62//62 63//63 64//64
f 62//62 64//64 65//65
f 4//4 58//58 62//62
f 4//4 62//62 9//9
f 58//58 59//59 63//63
f 58//58 63//63 62//62
f 8//8 18//18 66//66
f 8//8 66//66 60//60
f 60//60 66//66 67//67
f 60//60 67//67 61//61
f 4//4 8//8 60//60
f 4//4 60//60 58//58
f 58//58 60//60 61//61
f 58//58 61//61 59//59
f 93//93 193//193 194//194
f 93//93 194//194 69//69
f 93//93 69//69 73//73
f 93//93 73//73 94//94
f 174//174 81//81 80//80
f 174//174 80//80 175//175
f 94//94 73//73 79//79
f 94//94 79//79 96//96
f 175//175 80//80 89//89
f 175//175 89//89 177//177
f 194//194 196//196 74//74
f 194//194 74//74 69//69
f 95//95 97//97 83//83
f 95//95 83//83 74//74
f 95//95 74//74 196//196
f 95//95 196//196 195//195
f 174//174 176//176 82//82
f 174//174 82//82 81//81
f 176//176 178//178 90//90
f 176//176 90//90 82//82
f 98//98 71//71 75//75
f 98//98 75//75 99//99
f 126//126 87//87 86//86
f 126//126 86//86 128//128
f 99//99 75//75 85//85
f 99//99 85//85 102//102
f 128//128 86//86 92//92
f 128//128 92//92 134//134
f 98//98 100//100 76//76
f 98//98 76//76 71//71
f 100//100 101//101 77//77
f 100//100 77//77 76//76
f 126//126 130//130 88//88
f 126//126 88//88 87//87
f 130//130 131//131 91//91
f 130//130 91//91 88//88
f 70//70 84//84 97//97
f 70//70 97//97 95//95
f 68//68 70//70 95//95
f 68//68 95//95 93//93
f 72//72 94//94 96//96
f 72//72 96//96 78//78
f 68//68 93//93 94//94
f 68//68 94//94 72//72
f 111//111 108//108 101//101
f 111//111 101//101 100//100
f 109//109 111//111 100//100
f 109//109 100//100 98//98
f 110//110 99//99 102//102
f 110//110 102//102 112//112
f 109//109 98//98 99//99
f 109//109 99//99 110//110
f 74//74 83//83 107//107
f 74//74 107//107 105//105
f 69//69 74//74 105//105
f 69//69 105//105 103//103
f 73//73 104//104 106//106
f 73//73 106//106 79//79
f 69//69 103//103 104//104
f 69//69 104//104 73//73
f 68//68 109//109 110//110
f 68//68 110//110 70//70
f 70//70 110//110 112//112
f 70//70 112//112 84//84
f 68//68 72//72 111//111
f 68//68 111//111 109//109
f 72//72 78//78 108//108
f 72//72 108//108 111//111
f 84//84 113//113 114//114
f 84//84 114//114 97//97
f 112//112 118//118 115//115
f 112//112 115//115 84//84
f 102//102 117//117 118//118
f 102//102 118//118 112//112
f 85//85 116//116 117//117
f 85//85 117//117 102//102
f 96//96 122//122 120//120
f 96//96 120//120 78//78
f 101//101 123//123 119//119
f 101//101 119//119 77//77
f 79//79 121//121 122//122
f 79//79 122//122 96//96
f 78//78 120//120 124//124
f 78//78 124//124 108//108
f 108//108 124//124 123//123
f 108//108 123//123 101//101
f 76//76 77//77 132//132
f 76//76 132//132 129//129
f 129//129 132//132 131//131
f 129//129 131//131 130//130
f 71//71 76//76 129//129
f 71//71 129//129 125//125
f 125//125 129//129 130//130
f 125//125 130//130 126//126
f 75//75 127//127 133//133
f 75//75 133//133 85//85
f 127//127 128//128 134//134
f 127//127 134//134 133//133
f 71//71 125//125 127//127
f 71//71 127//127 75//75
f 125//125 126//126 128//128
f 125//125 128//128 127//127
f 135//135 166//166 132//132
f 135//135 132//132 77//77
f 180//180 151//151 106//106
f 180//180 106//106 177//177
f 137//137 146//146 89//89
f 137//137 89//89 80//80
f 138//138 137//137 80//80
f 138//138 80//80 81//81
f 139//139 138//138 81//81
f 139//139 81//81 82//82
f 147//147 139//139 82//82
f 147//147 82//82 90//90
f 140//140 152//152 107//107
f 140//140 107//107 83//83
f 149//149 168//168 134//134
f 149//149 134//134 92//92
f 143//143 149//149 92//92
f 143//143 92//92 86//86
f 144//144 143//143 86//86
f 144//144 86//86 87//87
f 145//145 144//144 87//87
f 145//145 87//87 88//88
f 148//148 145//145 88//88
f 148//148 88//88 91//91
f 150//150 140//140 83//83
f 150//150 83//83 97//97
f 151//151 136//136 79//79
f 151//151 79//79 106//106
f 179//179 147//147 90//90
f 179//179 90//90 178//178
f 153//153 154//154 114//114
f 153//153 114//114 113//113
f 141//141 153//153 113//113
f 141//141 113//113 84//84
f 154//154 150//150 97//97
f 154//154 97//97 114//114
f 156//156 157//157 117//117
f 156//156 117//117 116//116
f 157//157 158//158 118//118
f 157//157 118//118 117//117
f 158//158 155//155 115//115
f 158//158 115//115 118//118
f 155//155 141//141 84//84
f 155//155 84//84 115//115
f 142//142 156//156 116//116
f 142//142 116//116 85//85
f 160//160 164//164 124//124
f 160//160 124//124 120//120
f 161//161 162//162 122//122
f 161//161 122//122 121//121
f 162//162 160//160 120//120
f 162//162 120//120 122//122
f 163//163 159//159 119//119
f 163//163 119//119 123//123
f 164//164 163//163 123//123
f 164//164 123//123 124//124
f 159//159 135//135 77//77
f 159//159 77//77 119//119
f 136//136 161//161 121//121
f 136//136 121//121 79//79
f 165//165 148//148 91//91
f 165//165 91//91 131//131
f 166//166 165//165 131//131
f 166//166 131//131 132//132
f 167//167 142//142 85//85
f 167//167 85//85 133//133
f 168//168 167//167 133//133
f 168//168 133//133 134//134
f 67//67 66//66 167//167
f 67//67 167//167 168//168
f 66//66 18//18 142//142
f 66//66 142//142 167//167
f 65//65 64//64 165//165
f 65//65 165//165 166//166
f 64//64 24//24 148//148
f 64//64 148//148 165//165
f 12//12 54//54 161//161
f 12//12 161//161 136//136
f 52//52 10//10 135//135
f 52//52 135//135 159//159
f 57//57 56//56 163//163
f 57//57 163//163 164//164
f 56//56 52//52 159//159
f 56//56 159//159 163//163
f 55//55 53//53 160//160
f 55//55 160//160 162//162
f 54//54 55//55 162//162
f 54//54 162//162 161//161
f 53//53 57//57 164//164
f 53//53 164//164 160//160
f 18//18 49//49 156//156
f 18//18 156//156 142//142
f 48//48 17//17 141//141
f 48//48 141//141 155//155
f 51//51 48//48 155//155
f 51//51 155//155 158//158
f 50//50 51//51 158//158
f 50//50 158//158 157//157
f 49//49 50//50 157//157
f 49//49 157//157 156//156
f 47//47 30//30 150//150
f 47//47 150//150 154//154
f 17//17 46//46 153//153
f 17//17 153//153 141//141
f 46//46 47//47 154//154
f 46//46 154//154 153//153
f 173//173 23//23 147//147
f 173//173 147//147 179//179
f 39//39 12//12 136//136
f 39//39 136//136 151//151
f 30//30 16//16 140//140
f 30//30 140//140 150//150
f 24//24 21//21 145//145
f 24//24 145//145 148//148
f 21//21 20//20 144//144
f 21//21 144//144 145//145
f 20//20 19//19 143//143
f 20//20 143//143 144//144
f 19//19 25//25 149//149
f 19//19 149//149 143//143
f 25//25 67//67 168//168
f 25//25 168//168 149//149
f 16//16 40//40 152//152
f 16//16 152//152 140//140
f 23//23 15//15 139//139
f 23//23 139//139 147//147
f 15//15 14//14 138//138
f 15//15 138//138 139//139
f 14//14 13//13 137//137
f 14//14 137//137 138//138
f 13//13 22//22 146//146
f 13//13 146//146 137//137
f 172//172 39//39 151//151
f 172//172 151//151 180//180
f 10//10 65//65 166//166
f 10//10 166//166 135//135
f 22//22 172//172 180//180
f 22//22 180//180 146//146
f 40//40 173//173 179//179
f 40//40 179//179 152//152
f 152//152 179//179 178//178
f 152//152 178//178 107//107
f 146//146 180//180 177//177
f 146//146 177//177 89//89
f 105//105 107//107 178//178
f 105//105 178//178 176//176
f 103//103 105//105 176//176
f 103//103 176//176 174//174
f 104//104 175//175 177//177
f 104//104 177//177 106//106
f 103//103 174//174 175//175
f 103//103 175//175 104//104
f 38//38 171//171 173//173
f 38//38 173//173 40//40
f 36//36 169//169 171//171
f 36//36 171//171 38//38
f 37//37 39//39 172//172
f 37//37 172//172 170//170
f 36//36 37//37 170//170
f 36//36 170//170 169//169
f 26//26 189//189 191//191
f 26//26 191//191 28//28
f 205//205 181//181 201//201
f 205//205 201//201 207//207
f 93//93 95//95 195//195
f 93//93 195//195 193//193
f 210//210 186//186 198//198
f 210//210 198//198 212//212
f 182//182 181//181 189//189
f 182//182 189//189 190//190
f 183//183 184//184 192//192
f 183//183 192//192 191//191
f 181//181 205//205 183//183
f 181//181 183//183 191//191
f 181//181 191//191 189//189
f 206//206 182//182 190//190
f 206//206 190//190 192//192
f 206//206 192//192 184//184
f 185//185 186//186 194//194
f 185//185 194//194 193//193
f 188//188 187//187 195//195
f 188//188 195//195 196//196
f 187//187 209//209 185//185
f 187//187 185//185 193//193
f 187//187 193//193 195//195
f 194//194 186//186 210//210
f 194//194 210//210 188//188
f 194//194 188//188 196//196
f 211//211 199//199 200//200
f 211//211 200//200 212//212
f 187//187 188//188 200//200
f 187//187 200//200 199//199
f 209//209 187//187 199//199
f 209//209 199//199 211//211
f 186//186 185//185 197//197
f 186//186 197//197 198//198
f 207//207 208//208 204//204
f 207//207 204//204 203//203
f 181//181 182//182 202//202
f 181//181 202//202 201//201
f 206//206 184//184 204//204
f 206//206 204//204 208//208
f 184//184 183//183 203//203
f 184//184 203//203 204//204
f 182//182 206//206 208//208
f 182//182 208//208 202//202
f 201//201 202//202 208//208
f 201//201 208//208 207//207
f 183//183 205//205 207//207
f 183//183 207//207 203//203
f 185//185 209//209 211//211
f 185//185 211//211 197//197
f 197//197 211//211 212//212
f 197//197 212//212 198//198
f 188//188 210//210 212//212
f 188//188 212//212 200//200
# 420 faces, 0 coords texture

# End of File
