####
#
# OBJ File Generated by Meshlab
#
####
# Object waterTank.obj
#
# Vertices: 76
# Faces: 130
#
####
vn 0.981553 0.191181 -0.001870
v 37.827831 46.000687 0.000002
vn 0.712581 0.157406 -0.683705
v 26.748314 46.000687 -26.748314
vn 0.027113 0.073847 -0.996901
v -0.000002 46.000687 -37.827827
vn -0.695689 -0.001326 -0.718342
v -26.748316 46.000687 -26.748312
vn -0.999607 -0.028033 0.000631
v -37.827831 46.000687 0.000005
vn -0.696133 -0.000627 0.717912
v -26.748312 46.000687 26.748322
vn 0.024473 0.070210 0.997232
v 0.000000 46.000687 37.827835
vn 0.713518 0.151948 0.683962
v 26.748312 46.000687 26.748322
vn 0.494300 -0.869291 0.000000
v 35.510571 124.342186 0.000004
vn 0.321753 -0.848827 -0.419486
v 25.286659 125.554764 -24.855688
vn -0.094813 -0.799421 -0.593242
v 0.603960 128.482193 -35.151249
vn -0.511380 -0.750015 -0.419486
v -24.078737 131.409607 -24.855688
vn -0.683927 -0.729550 0.000000
v -34.302647 132.622192 0.000008
vn -0.511379 -0.750016 0.419486
v -24.078732 131.409622 24.855701
vn -0.094813 -0.799421 0.593242
v 0.603963 128.482193 35.151264
vn 0.321753 -0.848827 0.419485
v 25.286659 125.554771 24.855701
vn 0.952612 -0.304187 0.000000
v 42.277725 123.539589 0.000005
vn 0.667049 -0.270318 -0.694243
v 30.071762 124.987244 -29.674326
vn -0.022363 -0.188553 -0.981808
v 0.603960 128.482193 -41.965836
vn -0.711774 -0.106786 -0.694244
v -28.863838 131.977142 -29.674326
vn -0.997338 -0.072918 0.000000
v -41.069801 133.424805 0.000009
vn -0.711774 -0.106787 0.694244
v -28.863834 131.977142 29.674341
vn -0.022363 -0.188552 0.981809
v 0.603963 128.482193 41.965851
vn 0.667049 -0.270318 0.694243
v 30.071758 124.987244 29.674341
vn 0.540253 0.821554 0.182143
v 3.075265 149.319061 0.000005
vn 0.540253 0.821554 -0.182143
v 3.075265 149.319061 0.000005
vn 0.284456 0.851892 -0.439732
v 3.075265 149.319061 0.000005
vn -0.077295 0.894797 -0.439732
v 3.075265 149.319061 0.000005
vn -0.333091 0.925135 -0.182143
v 3.075265 149.319061 0.000005
vn -0.333091 0.925135 0.182143
v 3.075265 149.319061 0.000005
vn -0.077295 0.894797 0.439732
v 3.075265 149.319061 0.000005
vn 0.284456 0.851892 0.439732
v 3.075265 149.319061 0.000005
vn 0.694373 0.033999 -0.718812
v 20.311996 84.359062 -24.767553
vn 0.999128 0.041723 -0.001264
v 30.499653 83.150787 0.000003
vn -0.024313 0.030100 -0.999251
v -4.283178 87.276108 -35.026604
vn -0.718727 0.038650 -0.694217
v -28.878353 90.193153 -24.767553
vn -0.998999 0.044743 0.000310
v -39.066006 91.401428 0.000007
vn -0.719001 0.038193 0.693959
v -28.878349 90.193153 24.767565
vn -0.025470 0.031435 0.999181
v -4.283176 87.276108 35.026623
vn 0.694914 0.037290 0.718126
v 20.311996 84.359062 24.767565
vn -0.707107 0.000000 0.707107
v -37.992126 39.362606 37.992130
vn 0.301511 -0.301511 0.904534
v -28.956318 39.362606 37.992130
vn -0.301511 -0.301511 0.904534
v 28.956322 39.362606 37.992130
vn 0.707107 0.000000 0.707107
v 37.992126 39.362606 37.992130
vn -0.904534 -0.301511 -0.301511
v -37.992126 39.362606 29.651865
vn 0.301511 -0.904534 -0.301511
v -28.956318 39.362606 29.651865
vn -0.301511 -0.904534 -0.301511
v 28.956322 39.362606 29.651865
vn 0.904534 -0.301511 -0.301511
v 37.992126 39.362606 29.651865
vn -0.904534 -0.301511 0.301511
v -37.992126 39.362606 -29.651861
vn 0.301511 -0.904534 0.301511
v -28.956318 39.362606 -29.651861
vn -0.301511 -0.904534 0.301511
v 28.956322 39.362606 -29.651861
vn 0.904534 -0.301511 0.301511
v 37.992126 39.362606 -29.651861
vn -0.707107 0.000000 -0.707107
v -37.992126 39.362606 -37.992123
vn 0.301511 -0.301511 -0.904534
v -28.956318 39.362606 -37.992123
vn -0.301511 -0.301511 -0.904534
v 28.956322 39.362606 -37.992123
vn 0.707107 0.000000 -0.707107
v 37.992126 39.362606 -37.992123
vn -0.577350 0.577350 0.577350
v -37.992126 46.158867 37.992130
vn 0.577350 0.577350 0.577350
v 37.992126 46.158867 37.992130
vn -0.577350 0.577350 -0.577350
v -37.992126 46.158867 -37.992123
vn 0.577350 0.577350 -0.577350
v 37.992126 46.158867 -37.992123
vn -0.707107 0.000000 0.707107
v -37.992126 -0.007473 37.992130
vn -0.707107 0.000000 -0.707107
v -37.992126 -0.007473 29.651865
vn 0.707107 0.000000 -0.707107
v -28.956318 -0.007473 29.651865
vn 0.707107 0.000000 0.707107
v -28.956318 -0.007473 37.992130
vn -0.707107 0.000000 0.707107
v 28.956322 -0.007473 37.992130
vn -0.707107 0.000000 -0.707107
v 28.956322 -0.007473 29.651865
vn 0.707107 0.000000 -0.707107
v 37.992126 -0.007473 29.651865
vn 0.707107 0.000000 0.707107
v 37.992126 -0.007473 37.992130
vn 0.707107 0.000000 0.707107
v -28.956318 -0.007473 -29.651861
vn -0.707107 0.000000 0.707107
v -37.992126 -0.007473 -29.651861
vn -0.707107 0.000000 -0.707107
v -37.992126 -0.007473 -37.992123
vn 0.707107 0.000000 -0.707107
v -28.956318 -0.007473 -37.992123
vn 0.707107 0.000000 0.707107
v 37.992126 -0.007473 -29.651861
vn -0.707107 0.000000 0.707107
v 28.956322 -0.007473 -29.651861
vn -0.707107 0.000000 -0.707107
v 28.956322 -0.007473 -37.992123
vn 0.707107 0.000000 -0.707107
v 37.992126 -0.007473 -37.992123
# 76 vertices, 0 vertices normals

f 34//34 1//1 2//2
f 34//34 2//2 33//33
f 33//33 2//2 3//3
f 33//33 3//3 35//35
f 35//35 3//3 4//4
f 35//35 4//4 36//36
f 36//36 4//4 5//5
f 36//36 5//5 37//37
f 37//37 5//5 6//6
f 37//37 6//6 38//38
f 38//38 6//6 7//7
f 38//38 7//7 39//39
f 39//39 7//7 8//8
f 39//39 8//8 40//40
f 40//40 8//8 1//1
f 40//40 1//1 34//34
f 26//26 25//25 17//17
f 26//26 17//17 18//18
f 27//27 26//26 18//18
f 27//27 18//18 19//19
f 28//28 27//27 19//19
f 28//28 19//19 20//20
f 29//29 28//28 20//20
f 29//29 20//20 21//21
f 30//30 29//29 21//21
f 30//30 21//21 22//22
f 31//31 30//30 22//22
f 31//31 22//22 23//23
f 32//32 31//31 23//23
f 32//32 23//23 24//24
f 25//25 32//32 24//24
f 25//25 24//24 17//17
f 28//28 32//32 26//26
f 28//28 26//26 27//27
f 30//30 32//32 28//28
f 30//30 28//28 29//29
f 9//9 10//10 18//18
f 9//9 18//18 17//17
f 16//16 9//9 17//17
f 16//16 17//17 24//24
f 15//15 16//16 24//24
f 15//15 24//24 23//23
f 14//14 15//15 23//23
f 14//14 23//23 22//22
f 13//13 14//14 22//22
f 13//13 22//22 21//21
f 12//12 13//13 21//21
f 12//12 21//21 20//20
f 11//11 12//12 20//20
f 11//11 20//20 19//19
f 10//10 11//11 19//19
f 10//10 19//19 18//18
f 34//34 33//33 10//10
f 34//34 10//10 9//9
f 33//33 35//35 11//11
f 33//33 11//11 10//10
f 35//35 36//36 12//12
f 35//35 12//12 11//11
f 36//36 37//37 13//13
f 36//36 13//13 12//12
f 37//37 38//38 14//14
f 37//37 14//14 13//13
f 38//38 39//39 15//15
f 38//38 15//15 14//14
f 39//39 40//40 16//16
f 39//39 16//16 15//15
f 40//40 34//34 9//9
f 40//40 9//9 16//16
f 47//47 43//43 42//42
f 47//47 42//42 46//46
f 50//50 46//46 45//45
f 50//50 45//45 49//49
f 51//51 47//47 46//46
f 51//51 46//46 50//50
f 52//52 48//48 47//47
f 52//52 47//47 51//51
f 55//55 51//51 50//50
f 55//55 50//50 54//54
f 58//58 57//57 42//42
f 58//58 42//42 43//43
f 60//60 58//58 48//48
f 60//60 48//48 52//52
f 59//59 60//60 55//55
f 59//59 55//55 54//54
f 57//57 59//59 49//49
f 57//57 49//49 45//45
f 62//62 61//61 41//41
f 62//62 41//41 45//45
f 63//63 62//62 45//45
f 63//63 45//45 46//46
f 64//64 63//63 46//46
f 64//64 46//46 42//42
f 61//61 64//64 42//42
f 61//61 42//42 41//41
f 66//66 65//65 43//43
f 66//66 43//43 47//47
f 67//67 66//66 47//47
f 67//67 47//47 48//48
f 68//68 67//67 48//48
f 68//68 48//48 44//44
f 65//65 68//68 44//44
f 65//65 44//44 43//43
f 70//70 69//69 50//50
f 70//70 50//50 49//49
f 71//71 70//70 49//49
f 71//71 49//49 53//53
f 72//72 71//71 53//53
f 72//72 53//53 54//54
f 69//69 72//72 54//54
f 69//69 54//54 50//50
f 74//74 73//73 52//52
f 74//74 52//52 51//51
f 75//75 74//74 51//51
f 75//75 51//51 55//55
f 76//76 75//75 55//55
f 76//76 55//55 56//56
f 73//73 76//76 56//56
f 73//73 56//56 52//52
f 60//60 59//59 57//57
f 60//60 57//57 58//58
f 30//30 31//31 32//32
f 25//25 26//26 32//32
f 41//41 42//42 57//57
f 43//43 44//44 58//58
f 44//44 48//48 58//58
f 52//52 56//56 60//60
f 56//56 55//55 60//60
f 54//54 53//53 59//59
f 53//53 49//49 59//59
f 45//45 41//41 57//57
# 130 faces, 0 coords texture

# End of File
